/* XPM */
static char *_72f979671684068f9387ba259cdea18NXJ2PmnJ4s45uVAQ[] = {
/* columns rows colors chars-per-pixel */
"66 64 203 2 ",
"   c #0E0E0E",
".  c #140C07",
"X  c #110F0E",
"o  c #0F100F",
"O  c #1A1107",
"+  c #12110E",
"@  c #1A160D",
"#  c #1C190E",
"$  c #0F0F10",
"%  c #100F10",
"&  c #0F1010",
"*  c #111111",
"=  c #1A1613",
"-  c #1B1914",
";  c #191718",
":  c #1D1B1A",
">  c #22190E",
",  c #2B1F0B",
"<  c #231E14",
"1  c #291D16",
"2  c #221E1B",
"3  c #2C220D",
"4  c #372D0F",
"5  c #242115",
"6  c #2C2315",
"7  c #25211C",
"8  c #2B241B",
"9  c #2D2A1D",
"0  c #332714",
"q  c #31261C",
"w  c #322A1B",
"e  c #3B2D1B",
"r  c #3D3717",
"t  c #3D321D",
"y  c #252422",
"u  c #2B2623",
"i  c #252827",
"p  c #2C2924",
"a  c #2B2B2B",
"s  c #342C23",
"d  c #3A2F20",
"f  c #322929",
"g  c #373325",
"h  c #3E3423",
"j  c #3B352D",
"k  c #373633",
"l  c #3B3939",
"z  c #4B370D",
"x  c #433314",
"c  c #483719",
"v  c #4B3C1C",
"b  c #523E19",
"n  c #423524",
"m  c #433B23",
"M  c #4C3E24",
"N  c #473C2C",
"B  c #453D32",
"V  c #483F37",
"C  c #5E4913",
"Z  c #55431B",
"A  c #594619",
"S  c #634D1C",
"D  c #6B5316",
"F  c #6C551C",
"G  c #70581C",
"H  c #4C4024",
"J  c #4E4128",
"K  c #534423",
"L  c #54452A",
"P  c #584829",
"I  c #5D4C2D",
"U  c #5F502B",
"Y  c #4B4336",
"T  c #534732",
"R  c #5A4732",
"E  c #5A4B31",
"W  c #554838",
"Q  c #54493A",
"!  c #5F523A",
"~  c #644D26",
"^  c #665123",
"/  c #68542C",
"(  c #624F36",
")  c #645235",
"_  c #6B5933",
"`  c #62533B",
"'  c #69583A",
"]  c #7E652E",
"[  c #6F6034",
"{  c #73613E",
"}  c #7D673A",
"|  c #594D42",
" . c #5D5549",
".. c #605344",
"X. c #756443",
"o. c #786741",
"O. c #7E6A4B",
"+. c #656057",
"@. c #7C6F52",
"#. c #79705C",
"$. c #846C3E",
"%. c #826A4E",
"&. c #8C7447",
"*. c #887658",
"=. c #937C53",
"-. c #987E51",
";. c #937B58",
":. c #877863",
">. c #DB5A43",
",. c #DD725D",
"<. c #E1634D",
"1. c #9A824F",
"2. c #9A835A",
"3. c #9E8663",
"4. c #978368",
"5. c #9E896C",
"6. c #8D8576",
"7. c #958474",
"8. c #9D8E77",
"9. c #948A7B",
"0. c #A48B65",
"q. c #A48B6C",
"w. c #AA8F6C",
"e. c #AB9267",
"r. c #A08C76",
"t. c #A49173",
"y. c #AA9175",
"u. c #A5947B",
"i. c #AC9A7C",
"p. c #B49B77",
"a. c #B8A179",
"s. c #79A6DA",
"d. c #A89782",
"f. c #AC9B84",
"g. c #AC9B8C",
"h. c #B69E83",
"j. c #A39D96",
"k. c #AEA08C",
"l. c #BDA685",
"z. c #BAA68F",
"x. c #BAA98B",
"c. c #ADA793",
"v. c #B6A594",
"b. c #B6A894",
"n. c #BCAB94",
"m. c #B2AFAC",
"M. c #BCB5AB",
"N. c #BABCB7",
"B. c #E29680",
"V. c #C1A683",
"C. c #C5AB8B",
"Z. c #DCAB8E",
"A. c #C3AD95",
"S. c #CBAC97",
"D. c #DCA593",
"F. c #C3B493",
"G. c #CAB399",
"H. c #CAB49B",
"J. c #D3B99E",
"K. c #C7B9A7",
"L. c #C4BCAD",
"P. c #D5BEA5",
"I. c #D5BEA8",
"U. c #CBBFB1",
"Y. c #CBC0A6",
"T. c #D8C1A5",
"R. c #D2C1AE",
"E. c #CEC4B4",
"W. c #C3C1BA",
"Q. c #CCC5BC",
"!. c #D4C6B7",
"~. c #D1C5B8",
"^. c #D3CABC",
"/. c #DACCBB",
"(. c #EAC8BC",
"). c #8AA2CB",
"_. c #9EC9D9",
"`. c #CFCDCB",
"'. c #D5CEC2",
"]. c #D6CDCB",
"[. c #DAD2C5",
"{. c #D2D0CD",
"}. c #DFD5D3",
"|. c #DEDCD2",
" X c #E3D4C3",
".X c #E6D5CE",
"XX c #E8D7CB",
"oX c #E1DACD",
"OX c #E3DDD3",
"+X c #E9DED5",
"@X c #E5E2DB",
"#X c #E9E3DA",
"$X c #F1E6DF",
"%X c #CBDCE1",
"&X c #DBDAE4",
"*X c #DDE6EA",
"=X c #E5E6E2",
"-X c #EBE7E2",
";X c #ECEBE6",
":X c #EDECEA",
">X c #F1EFEE",
",X c #E7F1E9",
"<X c #F0F0ED",
/* pixels */
"* o                             * *     *                   $ o           & * * * *   * $     &                             $       ",
"    & *                         %   * *     * * o $ $ X *             + *           * *   *   *         * $ *       *     o         ",
"    * *                         &   * o * * *         &   o o o   o   o o $     &     *   *             % * $   X * &     o     *   ",
"    * *                         * * * * * % * * * *   %     @ - @ + +         o *   * * * * *           $   %   * $ X $     & * * * ",
"    * &         $ *       *   & * * * * *       + & % * X < v [ o._ m - *   * * *   *                             $ * & %   * *     ",
"*                   X % *     * $ * *     * & *     $ * 8 O.E.OX+XoXK.{ 1 o * * $   $     *                       * % * * * * * &   ",
"    *                       * * * o * *     &     $ % 5 :.[.;X>X<X<X;X^.) - +     * * & $ *                       $       $ * & $   ",
"  * *   * * *               *   $   * * * *         - ` '.<X<X<X<X>X:X#Xq.2   $       X   *                       o     + *   *   o ",
"* * * * * & $     +   &     & &   % * * * * * * * * 7 v.$X;X:X>X:X:X+X X0.1             &           %       *   % % *     *   &     ",
"* $ * &   *       $   *     o   $ * * * * * * * * $ 7 h.#X X(.-X+X-X#XR.} < & &   $ $   * * $ *                 *   %     *     & & ",
"* * * *     $ % $               * *   * *   *   * % 8 h.#X/.z.U.K.U.R.K.[ q * *     * o * * * *               * * * *       *   * * ",
"* * * * * $             *   * * * * * * * % * * * = R A.U...s s R V j.B h X.1 *   *     * *                 * * * * * % * *   * * * ",
"* * * * * * $   * * & *     & * * * * & * * * * & 7 *.0.0.f * y 9.j y - P N 9 *   &       * * &           & * * * * * * * * * * * * ",
"* * ; ; * * $ % * * * * * * * * * * * * $ % * * $ * Q q.&.0 8 | Q.8.8 5 _ x - *         * * *               *   & & * *   * * * * * ",
"* * * * * * * *   * * *     * * * * * $ $ * * % % % y O.K Z =.g.b.i.) c 5 # + &   $     & * % * $       &   * * * * * & * ; * * * ; ",
"* * * * * * * * * * * *       * * % & * % & * % % % % > 3 A 2.%.d ` y.P * + * *   X     * & * * * $ *   * * * *   & * & * * * * * ; ",
"* * & * % * * * * * ; * & * * * * * * *   * $   o & & 7 x b K 1 . - J q * - + o $ * * *   * * * * * * * * * * * * * * * * * * * * * ",
"* * * * * * * *   $ * *     $ &   *   *   * *   * + * - e x z # . O x - & * +   o * * * * * * * * * * * * * * * * * &   * * * * * * ",
"& & * * * * $ * *     o +     o   *       * *   & * s = # r 0 t 5 @ @ + * * + .     * * & * * * * * * * * * o $   *   * X * * * * * ",
"& & $ * * * o * * * *       $     *   $ $       + - < * o @ 5 @ @ 5 + * * & + + + * * * * * * * * * * * * * * *   $   * * * * & * * ",
"& * *     * * * * & * *     * X % %   $       ; u B @       +   . * * * & * ; - - * % * $ * * * ; * * * * & *     *   $ * * * * & * ",
"* * * * * * * $ *         $     % % $ % * y f :.t.;.1 %     o     * * * * ; Y 5 v q 7 = * X * * * * *     * * *     & X $ * * & * * ",
"* * * &   * * $     o           % $ ; y j k.z.q.$./ v 3 .             % * ; : , S -.r.B < * * * * * * * * * o   * * *   * $ *   * * ",
"* * * * * *       $         X   * u  .g.A.I.P.H.w./ m 5 o       o *     = h = 3 D e.S.G.%.d - * * +   * * * * * *     *   X *   * * ",
"*     * * *   $ o   * *   & * 7 ! f.H.P.P.J.C.a._ _ < .                 X 7 * 3 S ] p.P.h.y.I t q + * * o * $               *     * ",
"* *   *       X   * *       - +.u.;.p.p.$.w.] ^ U r @ o . X X     X $ *   + + 4 C G e.V.-.-.M ) @.7 * *   $ &                   $ * ",
"* &       $ &     X * * *   o 5 9 ` R L ^ 3.H 3 b > . o + = 8 +     $   + + @ 4 z F &.0.1.o.8 5 8 * *   * * $ +   *         *       ",
"    *     * * o &   & * * & $ o X @ @ = 2 J h Z Z # 5 # X * * + + = & $ & * 9 P A F 1.-.P 1 + . * * * * * * * $ $         &   $     ",
"                *           * o +     X X @ * > c 5 { ^ > X o * # e * * * = # 6 C G &.U 2 * %   * * * *     * & & * * * *   *   $ $ ",
"    *                     % 7 *         % * * : ' 8 S F Z @ = h 3 - * 5 N t 6 3 S D S 5 * * * + * * o * $     X * * * * %   * * * * ",
"                        * * y *       $ + * $ = v 5 ^ $.&.5 - 8 - 6 + # c J 5 z S A 6 * * *   * * & o o & % * * * * * * * * * * * & ",
"  $   *                 % * * *       * * &   = c = 5 o.*.8 g ; : L 5 x ~ R < t Z 5 * * * * * *   * * * * * $ * * & * * * * * * * * ",
"                          X       * $ $ ; * * % = ; * 8 P < = = h L < r 0 c 6 K < +   * &   * * * * $ * * * * * * * * * * * * * & & ",
"              &         * * X     $ $ * & * * * * * ; 1 K = X X * - @ 0 n q K 3 +   * * * $ * * ; * & * * * * * * * $ * * * * * $ $ ",
"            $ *             $ $     % * % * * * * 8 W h 3 O % = * * - 1 ( ) 7 + * * * * * * * * * * *     *   * * *     * * * * $   ",
"            * * &         * * $     $ * * * + * * + = = + * = * : * m n q 6 + % * * * * * * * & $ + *   * *   $ & * * & * * * * $   ",
"                *       * * % % & * %   * * *   * + * + X + + 1 P > 1 = X + + + * * * * $ $ & & $ o * * * *   o & * *   * * * * $   ",
"        * o * * *       % * % %   *   * X & *   * * * X X * - Q 5 + + o       * * * * *   & $ $   $ * * * *   *         * * * *     ",
"        * * * * * & $   % % % % X   * * $ * y X X * * * * * + - . + X     $   *   * & * $ * & & o   o + * * o o   &   * * * & *     ",
"        $           * 2 a a a i i i *   % * *   X % * * - *     .   %   o   + * $ * * & * $ & i i i a a a : + o *   $ $ * * &   .   ",
"            + * y u B 9.Q.`.`.M.M.m.l ; & $ $ & * & $ * ; @ + + $   % *   * * o $ o * $ o & k j.W.M.`.{.Q.6.B p y = * X * * *       ",
"        + * t I d.L.E.[.T.^.+XI.}.-XW.V & $ $ & % & * * * * + o & * $ * $ &       % * * & k W.=X=X/.#X[.T.!.Q.W.u.E t * * % $ X     ",
"        + 8 t.0.;.;.2.e.C.J.G.S..X;X@Xj.y * $ & * * * * * $   $ * * *   & $ & * * % * * y 9.@X;X,X[.K.G.l.-.=.3.&.3.8.q * * *       ",
"        o @ K K r 5 9 *.!.OXZ.>.,.oX@Xv.y $   & * * * + * * *   & * *   & & & *   $ * * 7 7.OXoX*X_.N./.Y.5.p 5 w H M > * $   %     ",
"  $   $ & X + @ o o 5 u. X(.<.>.B.$X-X:.2 $ * $ * *   $ * & * *   * * * & * * & *   * * * Q }.<X*Xs.s.]./.i.p + + = * X X           ",
"  * * & &     o   = Y ~.+XXX,.D.+X;X^.l *     *   * * * & & * = * * * ; * * & * * * $   * s L.;X,X%X).&XOX^. .- * * * % %           ",
"* * * * * $   + * Y M.H.u.[.I.@XXXL.8.7 $   & % %   & * & * * * * * * * * = * * * $     X - #.W.|.=XL.[.n.H.K.Y - * *               ",
"* * * * + $   = T F.n.3.[.|.t.^.*...L *   + & *     *   $ $ * * * * * * * * ; & * * * * * * q n | Q.d.|.[.2.F.A.L -   %             ",
"* * *   * + + ) H.F.=.o.}.}.L.L.J r # o + * * *   *       * * * * $ * * * * * * * * *     X @ 0 f c.W.oX|.*.=.C.x.` = X       X     ",
"* * * *   % y g.n./ _ 4.v.*.:.E X   o   & * % &   % *     * * * * * $ * * $ *   % *           . = H N { x.t.[ _ d.g.8 X     %       ",
"    &   $ $ * u q t g.4.j 2 : ;         *       $ + &       * * $ * % X * &       *             . + + < s ;.c.Q s 9                 ",
"$ *     X % %   % = 8 2 * * & &         $           *     *             &                                 1 f -                     ",
"  *           $ + *     * $                         $   &                           X                       % +                     ",
"  o         o   $       * $   $                     o   *     *                 &   $                                               ",
"    * * X % * $                                     & * o &       *   % $       + $ $   *   $               o         .         .   ",
"$ *   $ *                                             $ $         & * * *         &   * $               o     &                     ",
"                                                                                                                                    ",
"                                                                                                                                    ",
"                                                                                                                                    ",
"                                                                                                                                    ",
"                                                                          .                                 *       $     $ $       ",
"                                                                                                              &   $       $         ",
"                                                                                                        $ *   $   &   $             ",
"                                                                                              $ $       o   &         $             "
};
