/* XPM */
static char *matrix[] = {
/* columns rows colors chars-per-pixel */
"32 18 36 1 ",
"  c #010501",
". c #020B03",
"X c #051406",
"o c #081507",
"O c #071A07",
"+ c #081907",
"@ c #091609",
"# c #071E08",
"$ c #091D09",
"% c #0A230A",
"& c #0C2C0D",
"* c #0E330E",
"= c #0F390F",
"- c #10330F",
"; c #10380F",
": c #0F2F10",
"> c #102710",
", c #112B11",
"< c #0F3310",
"1 c #0F3D10",
"2 c #123412",
"3 c #123B12",
"4 c #183618",
"5 c #163D18",
"6 c #1A3E1A",
"7 c #0F410F",
"8 c #134413",
"9 c #164B15",
"0 c #184D17",
"q c #19441A",
"w c #1B4B1B",
"e c #175117",
"r c #185117",
"t c #1A5419",
"y c #1B5B1A",
"u c #244B24",
/* pixels */
"$&&O3;2%OXXO$.X %7.&&7OO&%.3X =.",
"&<3X**,XO$o#8XX&*&X&&8O%=&XO..X.",
"%$;.*=w%O&XX1%O==*O=*0&%*&XO .$.",
"%%3 &90*24oX&*X&8=%e3r%>*%O% .%.",
"%O%.%&w*>4$$23$18;&t80&o&$$X%%%X",
"OO*X&&3%&0&>*%&3093038$+*%$%O%%%",
"$O&X&>*&$8&><%&9t038&=O%8&%3%%%%",
"%%*+-&;&&8%%$#%e8>28*8O*82>*9*>2",
"XO*X*&0<>0%%&o.0&%*=29%6y4636&,6",
".&*X3;0*2y&3&$X0$%398t2wt6w62&>q",
"O*&X*;e&&r*2*3%0<$&830%6q,6w2%,u",
"X** &20&&e&,83%8w&%&38%2w&,4&%>4",
"X&= %88&28$301%3t3*&O&%3r>:&&%%$",
"X&&.&8,%2e%2<2&ey8,*&&%&y$:*8%%O",
"#%&O*3&&2rO383X3t=%&&%$o0%***&#+",
"*&OX2*%%4y%&83O9y;&*-%$o3&&*=&#$",
"%%=X3=&%2t&&9&X39*+;*XOO7O&.3&XO",
"%#*X&*&$&9O%=.X&3& *%.XO*X% 2&OO"
};
