/* XPM */
static char *matrix_neo1[] = {
/* columns rows colors chars-per-pixel */
"32 32 60 1 ",
"  c #000501",
". c #000B02",
"X c #001405",
"o c #001B06",
"O c #011D08",
"+ c #002207",
"@ c #002409",
"# c #002C0B",
"$ c #00330C",
"% c #003B0D",
"& c #042C10",
"* c #023411",
"= c #023C12",
"- c #00430E",
"; c #004A0F",
": c #00500F",
"> c #014313",
", c #014B13",
"< c #044519",
"1 c #034C19",
"2 c #094B1B",
"3 c #005314",
"4 c #005C14",
"5 c #02541A",
"6 c #035C1B",
"7 c #08581C",
"8 c #016115",
"9 c #006A16",
"0 c #02641B",
"q c #016C1B",
"w c #007016",
"e c #00741C",
"r c #007A19",
"t c #045E20",
"y c #0A5922",
"u c #046322",
"i c #026C21",
"p c #037323",
"a c #027B22",
"s c #00881D",
"d c #018324",
"f c #018B25",
"g c #04832C",
"h c #018C2A",
"j c #088B2F",
"k c #019225",
"l c #01952A",
"z c #029C2E",
"x c #0B873A",
"c c #099332",
"v c #019D31",
"b c #099C37",
"n c #069F3C",
"m c #05A431",
"M c #04AD35",
"N c #08A937",
"B c #0CA43B",
"V c #0BAA3C",
"C c #02BD36",
"Z c #08C442",
/* pixels */
" X. ..X$#>bNl94w9%+##<37#O5@.XX ",
"   .X.o+>zVs9489q;#$$-%u5o>*.XX ",
"  . ..X+0Czf0%,::;%$76-7p<==  . ",
"X%=7$.XodZNce-%;%%#+=:%;a15>.   ",
"88;60,#OpVmfr;#-;#oo%-%-h,t$  . ",
"8%#$#4a6srs0r;#::%oo<>-;g5u#XX@@",
"-#@u=,44wrk8w;%4:-#%*%$;pqe3q0qg",
";%=6=o-;44s9:-$;;%#$O*%,nVg4i,;8",
":03>XX$$>o+++O+%#@@+O##7Bp,>3$,8",
"w90*@O+>e#X+XXX+-#+XXO#>ad%@XX>a",
"ri5*=$#>l%@+@XX7h4OXXO##gh-XX X2",
"rg5$@#3;k=#oo.@fh4#O+&@1v6-XooX+",
"9q,$$2-8z>#XOo+4q%%@+$@,h%=#o*o+",
"3,%>==o8m6+o&@+>72%XXXO4h%>$#i3,",
",$,,%@X@pq$O@+,:#>7@OX+gj1#+-73q",
"$#-3,X..yd#@+@>>$$>+oo3z6#.o3>$4",
"+#;,#.. *f%$+#@#$o.XX*azo  .%+#8",
"o%%@X   @v3$+@#>#OOO+0me.  .$$$9",
"->o.X   Xh9#O@@=,@o#>iM5.  X$;-9",
"-X XX.  Xaz3@#.X@o.o$6l+   .X$;9",
"#X  ... X0Np##oXOoXX%sp.   ...#a",
"5# .X.. X,wj3$@oooX$;g>.   .. X>",
">X ..  .$7-;a5+++O@;3y*.  ..  .=",
"X   .  .5q%$,q%$#@%->=$X   .  X#",
".  .. .Xqi%++3%#$@==>*&O .... ..",
" .  ..X#qq5#@%@##O&=*@&&X.XX.  .",
"...*#+-09>%#@#$+@@*@OO&=OX*@o@XO",
">>7xu,9,,>7##+++oo+O*@*<#$$@#<1+",
"u9aBjq4,%%#+$#@OXXO&@&OO@**&=1=@",
"0,,7u,%2*+X+#$OX.X#&OO##=&#*&@@#",
"><$>y>##$+X##=XXX@##oo&@&X&&Xoo@",
"u,*,6=##@OO@#1O$+*$+..oooOO@XXOO"
};
