/* XPM */
static char *morpheus[] = {
/* columns rows colors chars-per-pixel */
"32 31 119 2 ",
"   c #0E0E0E",
".  c #100F0E",
"X  c #11100E",
"o  c #19160F",
"O  c #1D190E",
"+  c #0F0F10",
"@  c #100F10",
"#  c #0F1010",
"$  c #111110",
"%  c #181613",
"&  c #1E1A14",
"*  c #1E1C19",
"=  c #201B0F",
"-  c #231D14",
";  c #262016",
":  c #2C2515",
">  c #25221D",
",  c #2B241A",
"<  c #332916",
"1  c #322A1B",
"2  c #392E1C",
"3  c #3C3115",
"4  c gray14",
"5  c #2E2922",
"6  c #322C24",
"7  c #3B3224",
"8  c #3A342C",
"9  c #463816",
"0  c #44361C",
"q  c #4A3A19",
"w  c #513F13",
"e  c #4B3D25",
"r  c #433A2A",
"t  c #4B3F2E",
"y  c #443D37",
"u  c #58440F",
"i  c #564316",
"p  c #654F1B",
"a  c #4E4026",
"s  c #504022",
"d  c #594826",
"f  c #55452C",
"g  c #4F4636",
"h  c #514534",
"j  c #5A4A33",
"k  c #544A3D",
"l  c #655126",
"z  c #6F5927",
"x  c #615035",
"c  c #68583A",
"v  c #705A30",
"b  c #7B6123",
"n  c #524B43",
"m  c #5F544A",
"M  c #685E52",
"N  c #736042",
"B  c #7D6743",
"V  c #7E6947",
"C  c #7A664C",
"Z  c #7D6A4F",
"A  c #6C6152",
"S  c #6A635A",
"D  c #766754",
"F  c #746955",
"G  c #7A6B56",
"H  c #7A6E5C",
"J  c #6D6B69",
"K  c #7A7164",
"L  c #7B766F",
"P  c #8D7136",
"I  c #887455",
"U  c #88775B",
"Y  c #987E54",
"T  c #937C5D",
"R  c #837664",
"E  c #8C7D65",
"W  c #827C75",
"Q  c #817E7A",
"!  c #E95846",
"~  c #9D8151",
"^  c #968772",
"/  c #988770",
"(  c #988B78",
")  c #A88C60",
"_  c #A08C6F",
"`  c #A38F7A",
"'  c #AC9676",
"]  c #AD9A77",
"[  c #A4957D",
"{  c #AD9A7C",
"}  c #B79A76",
"|  c #918D87",
" . c #95908C",
".. c #A99883",
"X. c #B0A18C",
"o. c #BDA88C",
"O. c #AEA395",
"+. c #B3A795",
"@. c #BBAB93",
"#. c #B5AA9D",
"$. c #90ADBE",
"%. c #DDAA91",
"&. c #D0B399",
"*. c #C5BBAC",
"=. c #D7BBA4",
"-. c #C2BCB5",
";. c #E6B4A1",
":. c #CFC1AC",
">. c #C5C3BE",
",. c #DCC7B3",
"<. c #D2C9B8",
"1. c #E6C8BC",
"2. c #EBE1D7",
"3. c #ECE2DA",
"4. c #C2DEE2",
"5. c #ECE7E1",
"6. c #E5EAE6",
"7. c #F4F1EE",
"8. c #F3F2F3",
/* pixels */
"                $ $ #                   $ #           $     +   ",
"$ $               @ $ $   +   o .     . $ $           $     $   ",
"  $         . $ + $ # + # & F +.( 7   $ $                   $   ",
"#           + $ $ # + +   H 5.8.7...%         #     $   $ $     ",
"$ $ $         # $ $ # # o O.2.3.2.' =               + $   #     ",
"$ $ #         $ $ $ $ + 5 X.R F A x 7 #   $ +     + $ $ $   $ $ ",
"$ $ $ $ $ $   $ $ $ + + 6 T 2 K k 2 r #   +       + $ # $ $ $ $ ",
"$ $ $ $ $ $ + $ # # # # % a v D Z 2 %     X $   $ # $ $ $ $ $ $ ",
"$ $ $ # $ $ + $ +     # # - 9 t r % % $ # $ $ $ $ $ + $ + $ $ $ ",
"+ # $ $ $       $     $ , X & 1 > + % % + # $ $ $ $ $ + $ # $ $ ",
"$ + $ $   @       % y G N &       . * e r % $ $ $ $ # # # $ $ + ",
"$ $ # +       * m ` &.} d ,   . . $ - p ) T 7 & $ $ $ $   +     ",
"+ +           8 C B Y l 3 X % X + X & u P ~ f 7 % # + +       + ",
"          # $ % % % : 3 9 : % - %   & w b q $ $ $ + $ # .   #   ",
"            $ $     @ ; 9 z ; < - < < i 9 % $ $ # + $ $ $ # $ $ ",
"            $ $     $ % & c 1 ; < s 2 3 % $ $ $ $ $ $ # $ % $ $ ",
"      #     X   . . $ $ % 2 , % - 0 < $ $ $ $ $ $ $ + @ @ $ $ $ ",
"            # # $ $ $ $ $ % $ - ; - $ @ # # + # $ $ + + @ $ $ # ",
"    # #     X #     X $ . $ % - %   @ $ # #     $ +     + $ $ # ",
"      * 8 A | | J 4 . $ $ $ $ X   . $ $ $ $ 8 W  .Q n 5 % $ @ $ ",
"    ; V U _ =.;.3.L   .   X $ X $   $ +   > -.6.<.o.E I j $   # ",
"    X & X F %.! 1.S   .     # $ @ $ # + + * #.4.$.@.7 o &       ",
"X X X   k o.,.=.X.6             $ $ $ $     M *.>.:.^ >   X     ",
"$ .   k { ..@.E 1 $ @ +         $ $ $ $ +   & g [ @.] / >       ",
"+ +   5 h H , O                                 - g F r &       ",
"                                                                ",
"#                                                               ",
"  .                                                             ",
"                                                                ",
"                                                                ",
"                                                                "
};
