/* XPM */
static char *neo[] = {
/* columns rows colors chars-per-pixel */
"31 32 62 1 ",
"  c #000501",
". c #000B02",
"X c #001305",
"o c #001B06",
"O c #031408",
"+ c #011C08",
"@ c #002207",
"# c #012409",
"$ c #012B0B",
"% c #00330C",
"& c #003B0D",
"* c #062710",
"= c #032D10",
"- c #023511",
"; c #013B12",
": c #00430E",
"> c #004A0F",
", c #014413",
"< c #014B13",
"1 c #064718",
"2 c #034B19",
"3 c #005313",
"4 c #005C15",
"5 c #03541A",
"6 c #025B1B",
"7 c #006415",
"8 c #006A16",
"9 c #02621A",
"0 c #016C1B",
"q c #007317",
"w c #01741D",
"e c #017A1D",
"r c #065220",
"t c #045C21",
"y c #016320",
"u c #046C22",
"i c #0C6C2E",
"p c #027324",
"a c #087227",
"s c #027B22",
"d c #06752D",
"f c #00831E",
"g c #008C1E",
"h c #038225",
"j c #018B24",
"k c #02832A",
"l c #048C2B",
"z c #098D2D",
"x c #009126",
"c c #04952D",
"v c #029E2E",
"b c #039734",
"n c #049F32",
"m c #089E32",
"M c #0A983B",
"N c #01A92F",
"B c #05A333",
"V c #04AE34",
"C c #03A03A",
"Z c #0CA93D",
"A c #02B332",
"S c #0FB443",
/* pixels */
".X ...$$*0BVe387:@##165$+5%.Xo ",
" . ...##qZBe947e3$%%&&6t+;;.XX ",
"   ...#%VVze<>34>&&:9:<a2-2... ",
"@$;;X.@:AABf>%::&%$%6:&w6,2.   ",
"739u5@@&ZBme4%&>&o@*::&j552. . ",
">%$$3099gffq7$:3>@O%1:%h6t;..OO",
"%#-5&798egq84%34:$&-:&&q0u<469h",
"&%56@&>44fe8>%>>:$%*=&&zCc4p437",
"433$X+%:%#$$#@&%#@$+$$;Sl6:4%,3",
"e6y+#+%6>Xoo.X+&%#o.+$%ph:$@X,s",
"w51$,#%e0+##+.#s9#XX+$$9n3oX X1",
"ja,$$&,w0##oXX0B0&++$#;lp<ooO.$",
"e9,#1;4es$oooo3e>&#o-#;l3&$+%Oo",
"3:&&1$:jl$o#$o%61:@Ooo&x,,&#63&",
"&,<<$+o4z%@@$%5-13%oXo9C1&@&948",
"$&><%.X*z:#@+%3&#1-oo&jk-OX11%4",
"#&<<o .Ok3$@#$#&@XXX#7v,. .&$#3",
"%&%@. . hw&$#$%&oooo2cx@  .%$%4",
"<%X..   6j%@@@%2%o@&6Bs.  .$>:7",
"%..oX   <N9$$oO$#XO%,n,.  .X%>7",
"o ..X . &mz-#@XooXX$7z+   ...$e",
"2...X . %8cu%$@ooO@&j9X   ....;",
"; ...  X3>>w6$o#oo&36,X  ... .%",
".  ..  #p>%1u:%$@%>,,-+   .  .$",
". ... .,k:%@,3$%$-;;;$# .... .X",
".  .. o<e5&o%%#%o$;;===X.XX.   ",
"..X$X#204:&##$##+%=#+#-#.$$XOXX",
"&%id,743,<&#$#$o+#+=$=r=$%$#,1$",
"90bMw0<:&:#%$##.O+##=###%==-22#",
"634a6:11#oX$%#+XX#-++$#--$--=#$",
",%;26%$%$o#$;+XX+$$+X$=-+#;++O#",
"6&,15$#$#X#$2###$%%XXO++++=O.+#"
};
