/* XPM */
static char *neo1[] = {
/* columns rows colors chars-per-pixel */
"30 32 227 2 ",
"   c #010504",
".  c #0A0704",
"X  c #030A04",
"o  c #0C0C05",
"O  c #050F0A",
"+  c #110E06",
"@  c #180E06",
"#  c #001304",
"$  c #001C05",
"%  c #05140A",
"&  c #0A150A",
"*  c #0D1D09",
"=  c #1A1505",
"-  c #161906",
";  c #141409",
":  c #1B1409",
">  c #111B0B",
",  c #1C1C09",
"<  c #081612",
"1  c #0B1D15",
"2  c #161B12",
"3  c #290C04",
"4  c #221505",
"5  c #291805",
"6  c #231D0A",
"7  c #2C1D0A",
"8  c #361606",
"9  c #331A09",
"0  c #0D220D",
"q  c #012909",
"w  c #162D07",
"e  c #13230F",
"r  c #1B230D",
"t  c #11290F",
"y  c #0F3009",
"u  c #003B0B",
"i  c #12380D",
"p  c #0D2916",
"a  c #0C231B",
"s  c #132511",
"d  c #192613",
"f  c #142B12",
"g  c #1A2B13",
"h  c #0B3714",
"j  c #143215",
"k  c #1A3315",
"l  c #163A13",
"z  c #133B1A",
"x  c #1A3A1B",
"c  c #212507",
"v  c #24230B",
"b  c #2B230A",
"n  c #2D2A0C",
"m  c #362703",
"M  c #33250B",
"N  c #3A250B",
"B  c #332A0D",
"V  c #3C2A0D",
"C  c #263C0C",
"Z  c #39320D",
"A  c #272614",
"S  c #232D15",
"D  c #312C12",
"F  c #3F2E10",
"G  c #213316",
"H  c #27381A",
"J  c #353312",
"K  c #3B3212",
"L  c #373914",
"P  c #0D2520",
"I  c #122D22",
"U  c #0D3826",
"Y  c #123225",
"T  c #143A29",
"R  c #143B2B",
"E  c #263D25",
"W  c #441905",
"Q  c #591E05",
"!  c #442606",
"~  c #442B0E",
"^  c #4C2A0B",
"/  c #552606",
"(  c #552E0B",
")  c #5A2E0C",
"_  c #4D320F",
"`  c #47380C",
"'  c #54340D",
"]  c #5C380E",
"[  c #452D11",
"{  c #443411",
"}  c #463816",
"|  c #4B3915",
" . c #4E3C19",
".. c #543613",
"X. c #563B14",
"o. c #5B3C13",
"O. c #612A09",
"+. c #702A02",
"@. c #6D350B",
"#. c #633B14",
"$. c #034A0E",
"%. c #19510D",
"&. c #084918",
"*. c #1B441A",
"=. c #085516",
"-. c #0D5C16",
";. c #31400C",
":. c #28441A",
">. c #3F4E14",
",. c #34451B",
"<. c #3B431D",
"1. c #3B491C",
"2. c #375818",
"3. c #06640D",
"4. c #146416",
"5. c #126E13",
"6. c #287D1D",
"7. c #084727",
"8. c #174822",
"9. c #03512A",
"0. c #085C29",
"q. c #185723",
"w. c #254D23",
"e. c #2A4921",
"r. c #394622",
"t. c #285623",
"y. c #3E5B29",
"u. c #394F35",
"i. c #0D6926",
"p. c #2E6029",
"a. c #35632E",
"s. c #386D37",
"d. c #54450D",
"f. c #58400D",
"g. c #48461A",
"h. c #564112",
"j. c #5A4113",
"k. c #5B4717",
"l. c #585B1A",
"z. c #6F4519",
"x. c #69531B",
"c. c #474D22",
"v. c #535022",
"b. c #595527",
"n. c #495B38",
"m. c #555D34",
"M. c #765A2A",
"N. c #70582F",
"B. c #566626",
"V. c #56673C",
"C. c #6C6B32",
"Z. c #7B7B33",
"A. c #587748",
"S. c #716E46",
"D. c #86400C",
"F. c #846636",
"G. c #857932",
"H. c #9C7E40",
"J. c #887B57",
"K. c #8E7E65",
"L. c #098715",
"P. c #12961C",
"I. c #2B871A",
"U. c #149124",
"Y. c #3A8523",
"T. c #2E9234",
"R. c #19A429",
"E. c #37A230",
"W. c #78883A",
"Q. c #4FAC39",
"!. c #3BB950",
"~. c #509247",
"^. c #798856",
"/. c #7A925C",
"(. c #46B84E",
"). c #77B270",
"_. c #60D952",
"`. c #7AD36B",
"'. c #87833E",
"]. c #9C9B3A",
"[. c #8B9746",
"{. c #979549",
"}. c #8F8754",
"|. c #A79859",
" X c #9BA558",
".X c #A7A859",
"XX c #92926C",
"oX c #AB9D66",
"OX c #B69E6A",
"+X c #9DB367",
"@X c #91B66B",
"#X c #A1AA66",
"$X c #AFA76E",
"%X c #A9B36A",
"&X c #B9BD78",
"*X c #C2AF73",
"=X c #83C157",
"-X c #94C876",
";X c #B6C270",
":X c #C5C37B",
">X c #879F81",
",X c #8EB88A",
"<X c #B0AD86",
"1X c #C8BB9A",
"2X c #B1CD87",
"3X c #ACEBAD",
"4X c #C6C986",
"5X c #CFCD93",
"6X c #D8D89B",
"7X c #CFD4AF",
"8X c #D2DAA1",
"9X c #DBDEA6",
"0X c #C0FBB3",
"qX c #E3E9B9",
"wX c #CEF4CC",
"eX c #E4EBC7",
"rX c #E3F4C3",
"tX c #E9F4CB",
"yX c #F0F9CB",
"uX c #E9F8D6",
"iX c #EAF7DD",
"pX c #F3FDD8",
"aX c #EBFCE6",
"sX c #F2FBE7",
"dX c #F2FEEB",
"fX c #F4FEF1",
"gX c #F6FEFC",
/* pixels */
"S G e.l x s.).wXfXgXgXaXeX9X4X*X#XZ.l. .D , .   X O + e d d ",
"S G w.l s.).3XfXfXgXgXiXqX6X4X2X%X'.N.k. .K , X   X & e d g ",
"H H *.i s.-XwXsXdXfXaXtX6X4X&X%X{.C.l.o.j.h.V * . O * s s g ",
"U.q.i.&.p.-XrXpXaXtXeX6X;X;X.X[.W.l.j.o.o.h.{ , O % q s s g ",
"E.(.(.U.4.-XqXpXpXeX9X4X*X.X{.G.C.' ..h.d.o.| , X # u p d d ",
"2.Q.#X=XQ.`.rXyXaXrXqX6X:X.X{.G.M.' ..j.] o.{ , 2 u.n.C.m.n.",
"w %.B.].]._.0XuXdXaXwX9X5X.X{..X'.o.' o.o.] ~ ; A.<X+X X X%X",
"- 4 ;.l.d.Y.~./.>X,X,X;X+X'.[. XW.o.X.g.o.'  .}. XW.f.d.d.l.",
"i C ` C w 0 o @ @ o d :.r.g.B.B.a.A ; ; ; , <.W.x.' ! ! ! m ",
"5.Z ` %.y X             . D X.c X         X o = 5 5 5 5 5 3 ",
"` ` 2.3.i =               D  .: .         X o o 3 8 W 8 - ; ",
">.2.6.I.v.7 = X         7 J.F.9           . o r c 8 Q Q 9 0 ",
"6.6.R.`.^.M N 7 @ : : 9 XXiXOX) 4 o     . @ M J c 8 / +.O.v ",
"Y.P.!.3XXXV ~ ~ ..}.S.#.1XiXOX@.! 9 9 8 W ! _ g.C w ~ @.D.M.",
"R.P.T.2X@X} V ~ #.oXF.) OXiXOX#.( ) ) ) ) ' g.1.%.3.B z.1XqX",
"P.L.-.A./.1.M V #.H.z.N.7XiX|.) ( ] O.O.) _ v.,.3.-.5 K.iXyX",
"L.5.*.j A.c.n V _ M...N.<X<XM.( ' ( ) O.|  .c.:.=.i d XXfXeX",
"3.&.f f u.c.b B [ _ o.[ 9 k.~ 5 N ^ ( ..g.g.1.*.%.t g S.eXeX",
"&.l f f y.b.b B ~ [  .} A 7 , 7 ~ ^ ^ _ } r.<.G f s s S.6X8X",
"*.g g 8.y.V.A M V V D K F D N [ F { _ ~ g.1.H x f s d r.$X<X",
"k k k w.a.A.D b M b 7 7 8 9 9 8 M M V ` 1.r.:.j s s g f m.{.",
"k k k w.u.~.n.b b A 7 8 8 3 3 3 3 5 B K 1.,.H f e e e t t ,.",
"k g k *.t.T./.H 6 b M 7 5 9 9 9 M M b L :.*.l 0 > s 0 s t f ",
"g g k x 8.0.A.V.b v b M b , 6 7 M b b n k $.h e e s s t f s ",
"g g k T q.9.U n.r.v D K K J K B M c c r # # 0 e 0 e f f f f ",
"k g g 8.0.9.I I E A A n J J n D n r > o     % 0 0 d k j j k ",
"x S g 8.0.7.Y I a s > , r v , = ; o         & e t k x &.8.w.",
"G g t &.9.U I I a 1 % % + + + + . X     X   % q h z 8.8.q.w.",
"j d p 9.9.T Y Y a a 1 < < + . . .     X     # q $.=.&.h p j ",
"=.z =.9.7.T Y Y I a 1 1 P O                 X # q q u $.u q ",
"0.9.7.U R R Y I a 1 a a P O                 X     X $ q $ $ ",
"U U R R R U Y Y I a 1 1 <     O           X   X X X X   X # "
};
