/* XPM */
static char *neo_test[] = {
/* columns rows colors chars-per-pixel */
"32 32 108 2 ",
"   c #000401",
".  c #010B03",
"X  c #0A0F0E",
"o  c #031405",
"O  c #041B06",
"+  c #071409",
"@  c #081509",
"#  c #051D08",
"$  c #081D0A",
"%  c #042207",
"&  c #06230A",
"*  c #08250C",
"=  c #062B0A",
"-  c #092C0D",
";  c #07330B",
":  c #09330D",
">  c #07380A",
",  c #0A3B0E",
"<  c #0C2D11",
"1  c #0C3412",
"2  c #0D3C13",
"3  c #113611",
"4  c #103B16",
"5  c #123D18",
"6  c #162620",
"7  c #06420D",
"8  c #0A430E",
"9  c #0B490E",
"0  c #0B550F",
"q  c #0D4313",
"w  c #0D4C13",
"e  c #0F471A",
"r  c #0F4818",
"t  c #114516",
"y  c #114C16",
"u  c #124519",
"i  c #124C1B",
"p  c #1D4F1B",
"a  c #0E5413",
"s  c #0D5C14",
"d  c #0D5B1A",
"f  c #105515",
"g  c #115A16",
"h  c #12541A",
"j  c #18571B",
"k  c #155B1C",
"l  c #185B1D",
"z  c #0F6314",
"x  c #0F6B14",
"c  c #0F6519",
"v  c #106216",
"b  c #106916",
"n  c #14641B",
"m  c #156B1D",
"M  c #196B1F",
"N  c #0F721A",
"B  c #15741D",
"V  c #18771F",
"C  c #157B1D",
"Z  c #1E4529",
"A  c #135320",
"S  c #165C21",
"D  c #195D25",
"F  c #146320",
"G  c #1A6323",
"H  c #1B6B24",
"J  c #167321",
"K  c #1C7423",
"L  c #157F25",
"P  c #1C7C25",
"I  c #1B752A",
"U  c #1F7F28",
"Y  c #206C2A",
"T  c #21752F",
"R  c #257829",
"E  c #256833",
"W  c #16831E",
"Q  c #16881E",
"!  c #1B8324",
"~  c #1B8826",
"^  c #1C8328",
"/  c #1F8A2D",
"(  c #1F972B",
")  c #1F9C29",
"_  c #21822B",
"`  c #238C2C",
"'  c #239B2F",
"]  c #248231",
"[  c #2D8F38",
"{  c #259532",
"}  c #249B32",
"|  c #289B35",
" . c #2A973D",
".. c #2E9D3A",
"X. c #22A02E",
"o. c #26A432",
"O. c #2BA334",
"+. c #26AE32",
"@. c #2AAA36",
"#. c #2CA338",
"$. c #2CAE3B",
"%. c #30A33D",
"&. c #2BB039",
"*. c #2E9242",
"=. c #37A640",
"-. c #36AE45",
";. c #31B440",
":. c #3EB148",
/* pixels */
".   . .   .   # : o y { @.P 9 v g , O % # i h w # # S %   o o   ",
"  . .   . o   = % 9 %.O.V g g g V 0 % - : : : D h . r :   O o   ",
"6         o   % $ ' &.C V q q f 0 9 , > 5 l > y I 1 1 5   . .   ",
"+ . & < 5 .   # * $.+.| _ w - 7 8 > 3 & - n , > J A q q         ",
"o 0 v g K G # o O -.O.#.B v = : 9 - O @ & 8 , > ` q S 4     .   ",
"C v : & o , B H 9 ~ b C b x & , f 9 O . 3 y , > ] q D *     . . ",
"B > % * D = j s v V W B s z - 9 0 9 * 3 3 4 - , B d n 9 n l M _ ",
"0 8 = 4 Y % - 8 0 0 W R s w : 9 w , = 3 $ - , : ] =.` f K w 9 n ",
"7 9 f y : . o 1 , ; o = % % O : : & & & o : & t :.R y t f * t a ",
"0 B j G & & o * h a . O o . . @ : & # o . # & : H J : * o . j P ",
"s B h y * u & & M ! o & & $ . O _ M * o . O - # H o.8 o o   . G ",
"9 B ] q = $ : w f L # & @ O   M O.m : o # - $ t } F , . $ @ . = ",
"8 b n t O t 5 w m _ & # o O o 8 V : 3 - o 3 O : ` 3 , & @ 3 . # ",
"f 9 8 : 2 q < % Q #.= o & : @ % j p 3 O o o # 2 ` : t : % H w w ",
": 2 : w q - O . : ` , & O & - M * 3 j 3 o O . B ..t - @ 8 n f n ",
"y - = 8 y 2 . o . [ 9 $ & o : t , % w - O o : ' H * . o h 3 = g ",
"2 O ; q w #   .   Y n = % * - O 3 O . o . & B X.&   . . , % & v ",
"o & , : O .   .   n ` : * O & 1 , o * O o i | ! .       : & : n ",
"O 9 q . . .   .   , ' = & % O - y : o $ 2 h $.n       o : w , n ",
", >     o O   .   = @.V & - O . * $ . @ = 2 } *       . . - 0 b ",
": % . .   o   .   & ` %.2 & & o O O o o $ V ^ .         o   - L ",
"= D o   . o   .   * 9 ! K ; & # @ $ . & , ~ r .     . o .     p ",
"< 2   . . .     . j w = c I = o % O % 8 w i 2 .     . .     . q ",
"-       . .     O P w = = S h ; = & : 8 2 2 1 O       .     o = ",
"o     . . .   . = / 7 - o : w % 1 & < 1 2 : * *   . . .     . . ",
". .       .   O q N d 2 % - = # 1 o * 2 1 $ < * o   O o .     . ",
"  o   + e # - a J w - : & # = = + $ : * # # * e & o 1 * O < # # ",
"Z e 7 T *.w c s > 2 d 5 % = # % o # + o 1 < $ A & ; - & * i u # ",
"E F N L *.L c r u & : o = - # & . + # - # * # o * : < - 2 e : # ",
"c h : = h h ; 1 q = O o & < & o . . & < # + 1 - 5 & * 1 * O # - ",
"; 2 q 1 q D - % & = O # = 2 - o o & : - . o $ * * o < < . o + & ",
"e F 1 < q h ; % < o o O # e $ ; & & ; % . o o o o # + * . . # # "
};
