/* XPM */
static char *smith[] = {
/* columns rows colors chars-per-pixel */
"31 32 204 2 ",
"   c #070503",
".  c #080604",
"X  c #070A06",
"o  c #090B06",
"O  c #070E08",
"+  c #0A0D09",
"@  c #06130C",
"#  c #0C130D",
"$  c #12140B",
"%  c #14180F",
"&  c #0D1611",
"*  c #0D1B13",
"=  c #141C13",
"-  c #1B1D13",
";  c #101E18",
":  c #1D2216",
">  c #14241C",
",  c #19261E",
"<  c #15291D",
"1  c #1B291F",
"2  c #222216",
"3  c #22251A",
"4  c #26291D",
"5  c #292C1E",
"6  c #1C2620",
"7  c #162B22",
"8  c #1C2B22",
"9  c #1A2825",
"0  c #1D3126",
"q  c #183827",
"w  c #1C3429",
"e  c #1D3A2D",
"r  c #1E3D30",
"t  c #222D23",
"y  c #2C2E21",
"u  c #243127",
"i  c #2A3325",
"p  c #2F3A26",
"a  c #24352A",
"s  c #2A342A",
"d  c #233A2D",
"f  c #2B3A2D",
"g  c #343424",
"h  c #333927",
"j  c #383A26",
"k  c #363729",
"l  c #343C2D",
"z  c #243632",
"x  c #253E31",
"c  c #293D35",
"v  c #2A3E3A",
"b  c #323D31",
"n  c #3A3F30",
"m  c #413E2C",
"M  c #1E4032",
"N  c #3E422F",
"B  c #254233",
"V  c #294435",
"C  c #224935",
"Z  c #2C4937",
"A  c #2C453C",
"S  c #254C3B",
"D  c #2D4A3A",
"F  c #334433",
"G  c #3C4332",
"H  c #3D4A34",
"J  c #314D3B",
"K  c #3B4E3A",
"L  c #26513D",
"P  c #36513D",
"I  c #3C513C",
"U  c #43442D",
"Y  c #47482E",
"T  c #444533",
"R  c #474833",
"E  c #4B4D36",
"W  c #4A5033",
"Q  c #41543F",
"!  c #4D533C",
"~  c #55583C",
"^  c #2F4742",
"/  c #2E4E41",
"(  c #304742",
")  c #334C45",
"_  c #384E46",
"`  c #2D5443",
"'  c #335443",
"]  c #395542",
"[  c #345A45",
"{  c #385549",
"}  c #365A49",
"|  c #3B5C49",
" . c #35634B",
".. c #3D624E",
"X. c #3B6551",
"o. c #3C6D50",
"O. c #475A44",
"+. c #535C44",
"@. c #595A42",
"#. c #6C5E43",
"$. c #4D664A",
"%. c #5B6445",
"&. c #58674C",
"*. c #426A53",
"=. c #4A6952",
"-. c #536D52",
";. c #596A56",
":. c #497659",
">. c #587257",
",. c #6B6946",
"<. c #666C4C",
"1. c #6A6C4A",
"2. c #746D49",
"3. c #6D734F",
"4. c #6C7F4E",
"5. c #75794E",
"6. c #657557",
"7. c #697C55",
"8. c #747950",
"9. c #7B7955",
"0. c #527D61",
"q. c #677A63",
"w. c #85724D",
"e. c #847A54",
"r. c #7B835A",
"t. c #4A8563",
"y. c #538C6A",
"u. c #5A906F",
"i. c #589574",
"p. c #668569",
"a. c #708364",
"s. c #7A906A",
"d. c #788873",
"f. c #6F9273",
"g. c #7A9B79",
"h. c #6AA47F",
"j. c #78A07D",
"k. c #83865B",
"l. c #82885D",
"z. c #8A895D",
"x. c #948A5A",
"c. c #92945E",
"v. c #B38A57",
"b. c #898961",
"n. c #8C9267",
"m. c #949363",
"M. c #969568",
"N. c #9C9C6E",
"B. c #8F9F71",
"V. c #919C72",
"C. c #A19E62",
"Z. c #BC9B6A",
"A. c #AB9D72",
"S. c #99A06B",
"D. c #9AA677",
"F. c #A6A775",
"G. c #AAAA75",
"H. c #AFAE7A",
"J. c #B5B27D",
"K. c #C49B66",
"L. c #76A783",
"P. c #7CA584",
"I. c #74AC85",
"U. c #859F82",
"Y. c #8B9883",
"T. c #95A989",
"R. c #82B08B",
"E. c #9BB086",
"W. c #87BA93",
"Q. c #97B595",
"!. c #A5AE83",
"~. c #AAB685",
"^. c #B0B785",
"/. c #B4B985",
"(. c #BBBA86",
"). c #BBBD8B",
"_. c #B5BE91",
"`. c #93C59D",
"'. c #B9C28B",
"]. c #A1C09B",
"[. c #BDC394",
"{. c #9BCDA4",
"}. c #B7CFAD",
"|. c #A6D7AD",
" X c #ABD5AC",
".X c #ADDBB0",
"XX c #B1D1B0",
"oX c #B0E1B5",
"OX c #C5C58D",
"+X c #CCC793",
"@X c #C9CA94",
"#X c #CBCD99",
"$X c #C8D49C",
"%X c #D8DEA7",
"&X c #DDDDA8",
"*X c #DCE1AB",
"=X c #D4E4B0",
"-X c #DFE6B2",
";X c #E4E9B8",
":X c #E4EFBB",
">X c #D2EBCD",
",X c #CEF6CA",
"<X c #EAF1D0",
"1X c #F7FDEC",
/* pixels */
"z z a c v A { A ) J ( ^ v 9 6 s b ! $._ A c ^ ^ ) ) ) ' ) ) { ",
"B d a V V D | A | P J Z 9 $ $ 3 p 4.'.E.=.S / ` } ` { *...{ X.",
"V B B Z D P P J | ] ] d # - : 5 U D.%X;X'.$.` J ' / { X...' } ",
"D V B F J D P J [ P B % 4 k l U ,.G.@X*X:XD.-.J ' ' { X...{ } ",
"P Z V Z J J P D [ P 1 : h j g g W e.J.%X<X=Xs.L / Z D | ..` { ",
"-.Z Z J J D D Z ] J > 4 i 5 2 3 5 Y N.#X:X=Xs.Z x 8 t F ;.-.{ ",
"/.6.Z D Z D J Z ] J = : 3 4 2 2 3 j c.OX-X$Xr.M a b G %.D.[.a.",
"#XD.P J Z Z D e V a # - 2 5 y 5 5 g x.@X*XJ.H a T T E ,.x.(.[.",
"OX~.Q D V V B u F T = : : - - 2 2 - E k././.R #.n n l n 1.G.#X",
"(.F.I Z V d b G ! 1.: # # $ o $ % # $ : O.V.x.v.G G G G <.F./.",
"S.M.H J c 0 b n G E - o X .   $ i o . $ R ).v.e.b s i l O.3.n.",
"i l #.+.B 8 a h T N : $ $ o . % Y Y + g !.*XK.e.6 9 , u F 8 a ",
"a %.w.%.x 0 a t f l 3 - $ $ o 2 2.).#.#.).%XZ.@.> < 7 G O.a &.",
"r.G.M.O.x u u > 8 f 3 % $ $ $ 2 b.A.2.H.@X+X#.3 6 , t @.e.+.k.",
"M.H.3.Z B s a 6 a @.! m $ % $ $ n b.2.).&X_.b t t t 1 p 1.1.5.",
"8.V.F B B d s 8 u ! ! m - % $ # 3 <.z.^.*XD.' x t s 1 u ~ 5.9.",
"9.a.B V B B u 6 8 h E W 5 $ $ $ 2 #.9.b.*Xs.} Z 8 t 6 t E 1.&.",
"m.r.B V c V a 6 u j 2.3.g $ o o - m b.F.#Xq.} A , , , 6 Q %.+.",
"c.r.c c x V w > 8 s 5.r.g o + $ > +.B.'.@Xq.` A , , , 6 Q 5.+.",
"C.E.D a w e 0 7 8 a %.~ 4 + + + % G ~.%X&XU.r w u < , < H r.>.",
"~.}...e 7 7 > 7 V K k $ ; = + o = 4 l.OX;XQ.S < w 0 1 9 h 7.p.",
"oX`.` D < 9 6 6 d f +   & 7 = $ y F ~ N.<XT.i.M e e e P F j.p.",
",Xg.S C ; ; & + & @ o   + ; > 7 >.7.! }.1Xd.i. .M S L  .B p.f.",
"].p.M < @ & & + & & + X . * > 7 *.a.=.>X1Xp.I.0.e M M L ` o.:.",
"F f & o & * * & & # + X . & 7 7 0 * [ P.<Xq.L.I.*.C r / M y.i.",
"* # @ + @ * * o ; & X + . + 7 w >   ] ] T.;.i.|.p.r 7 [ y.`.oX",
"# @ + . O & & . & *   + . X 7 7 * X J :.) 6 f.,X:.r B } `.W..X",
"# X o . X O . . & @ + @ .   ; q < X J {.*.& +.XXZ 7 :.| |.j.R.",
"& X .   . . . . # + @ # o   # S e   _ W.:.< q.Y.7 a P.*.`.R.0.",
"& +     . + . . + o o + X . # L q   e `.:.> Y.d.* { }.u.{.I.D ",
"# +       +   . # X O O X     C q X < h.o.< U.;.@ $.>X{.|.y.q ",
"+ X .     + . . + o O O X .   < q # > t.` < P.| * ..>X,X X .; "
};
