/* XPM */
static char *smith_test[] = {
/* columns rows colors chars-per-pixel */
"32 32 213 2 ",
"   c #050402",
".  c #090403",
"X  c #060A05",
"o  c #0A0A06",
"O  c #070C09",
"+  c #0B0C09",
"@  c #100907",
"#  c #0B150B",
"$  c #0D120D",
"%  c #12140C",
"&  c #15190C",
"*  c #17190C",
"=  c #0E1310",
"-  c #0F1B13",
";  c #121612",
":  c #1A1410",
">  c #131C15",
",  c #1B1C14",
"<  c #151E1A",
"1  c #1B1E19",
"2  c #281C15",
"3  c #1F200B",
"4  c #0E2711",
"5  c #132214",
"6  c #1C2115",
"7  c #16221A",
"8  c #1B241C",
"9  c #1A2A1C",
"0  c #1A341E",
"q  c #232417",
"w  c #2D2417",
"e  c #23251D",
"r  c #252A1D",
"t  c #2A2B1E",
"y  c #34301B",
"u  c #1C2721",
"i  c #1C2A23",
"p  c #1F2E2B",
"a  c #183526",
"s  c #1F332A",
"d  c #242723",
"f  c #242A25",
"g  c #222D24",
"h  c #2B2D23",
"j  c #2D2F2A",
"k  c #302C20",
"l  c #213223",
"z  c #2C3225",
"x  c #23342B",
"c  c #2C332A",
"v  c #263C2D",
"b  c #2B3B2E",
"n  c #323325",
"m  c #35362B",
"M  c #323A2C",
"N  c #3A3B2B",
"B  c #3A3B2C",
"V  c #263C33",
"C  c #2B3D33",
"Z  c #343C33",
"A  c #383E34",
"S  c #433325",
"D  c #413B28",
"F  c #633929",
"G  c #2B402F",
"H  c #354127",
"J  c #2D4334",
"K  c #294933",
"L  c #2E4239",
"P  c #2E4A3A",
"I  c #324435",
"U  c #3B4235",
"Y  c #3C4537",
"T  c #33453A",
"R  c #354B3C",
"E  c #3B4C3D",
"W  c #2B5139",
"Q  c #3B543E",
"!  c #444529",
"~  c #55502C",
"^  c #434334",
"/  c #4D4632",
"(  c #464B3B",
")  c #4B4B3A",
"_  c #544C37",
"`  c #46543D",
"'  c #595C3C",
"]  c #5D633E",
"[  c #2F4740",
"{  c #3E4740",
"}  c #334B42",
"|  c #394C41",
" . c #2F5242",
".. c #3B5344",
"X. c #335C44",
"o. c #3C544A",
"O. c #385C48",
"+. c #3C6647",
"@. c #3A6553",
"#. c #534D43",
"$. c #415347",
"%. c #435945",
"&. c #44564A",
"*. c #445A4B",
"=. c #455F50",
"-. c #675F45",
";. c #47624E",
":. c #546445",
">. c #54614A",
",. c #5A6548",
"<. c #4D6754",
"1. c #476A55",
"2. c #556756",
"3. c #4C7357",
"4. c #5B745B",
"5. c #55795B",
"6. c #6D6A49",
"7. c #776A46",
"8. c #7A764A",
"9. c #7B774A",
"0. c #7A7E55",
"q. c #577964",
"w. c #657966",
"e. c #647F69",
"r. c #954C26",
"t. c #956950",
"y. c #837B58",
"u. c #987E5D",
"i. c #A36E47",
"p. c #8C7C65",
"a. c #7E8049",
"s. c #6B8058",
"d. c #798150",
"f. c #588267",
"g. c #7B8261",
"h. c #678970",
"j. c #6C9C79",
"k. c #769377",
"l. c #85835D",
"z. c #88855A",
"x. c #96865A",
"c. c #85955A",
"v. c #999154",
"b. c #898765",
"n. c #979D6A",
"m. c #849D7F",
"M. c #999676",
"N. c #AA9869",
"B. c #9AA976",
"V. c #ABA777",
"C. c #A6A97D",
"Z. c #B5B37B",
"A. c #C2A371",
"S. c #6DA282",
"D. c #7DA983",
"F. c #79AA87",
"G. c #86AA86",
"H. c #98A78B",
"J. c #88AA93",
"K. c #95B190",
"L. c #93B997",
"P. c #A8A281",
"I. c #AAB588",
"U. c #BAB384",
"Y. c #BAB986",
"T. c #BBB689",
"R. c #C8B78E",
"E. c #C2BE8D",
"W. c #C6BE92",
"Q. c #EABF8D",
"!. c #A3C89F",
"~. c #BCC291",
"^. c #9EC9A2",
"/. c #A9C9A6",
"(. c #AFD0AC",
"). c #B3D3AD",
"_. c #B8DBB7",
"`. c #BBE2B9",
"'. c #C9C38F",
"]. c #D2C085",
"[. c #C7C998",
"{. c #D1CB98",
"}. c #CFD099",
"|. c #D4D29E",
" X c #D7CEA0",
".X c #CBD6A6",
"XX c #D3D2A4",
"oX c #DBD4A6",
"OX c #D8DAA8",
"+X c #DCDBAC",
"@X c #C9DEB8",
"#X c #DBDEBE",
"$X c #E0D5A7",
"%X c #C3E3BA",
"&X c #D1E9BB",
"*X c #E2E1AF",
"=X c #E4E6B5",
"-X c #E4E9B7",
";X c #E9F2BD",
":X c #CFEAC2",
">X c #D5EBC5",
",X c #D7F2CA",
"<X c #D9F2CA",
"1X c #E6E7C5",
"2X c #EDF3C2",
"3X c #EEFACB",
"4X c #F5FBCB",
"5X c #EAFBDF",
"6X c #F4FBD0",
"7X c #F6FCE7",
"8X c #FDFDEE",
"9X c #FDFEF2",
"0X c #FFFEFD",
/* pixels */
"b C z R I I R K 2.R K I I V % r r N s.E } L L ..} J L ....R <.<.",
"b I v T I R R C %.T J V V ; % * z m B.[.d.T } ..o.} V o.h...O.` ",
"T J v T Q I I I *.R ....+ % % * n ] |.*X3Xa.*.R ..L V ..h...*...",
"R I C E I J I J %.E %.$ j N n ) _ C.Y.OX=X6Xs...R C V ..w.%.%.o.",
"E R b ..J J K b *.E E ; m B n m B y.7.E.;X4X~.h.} C C &.e.<.*.Q ",
"E E K Q I R Z b Q ..8 q t h q q h n ~ U.+X4X[.:.} 7 8 x U ,.....",
"[.N J E I I b v ..<.> 6 , h , * q q D I.V.=X~.:.u c A ( :.I.XX>.",
"'.XXJ E J T G C 8 &.X , , h n n n t D U.=X=Xv.H A ^ D / 6.x.'.XX",
"'.W.Z R J J i r 7 2.@ , 6 q * 2 h * , ~ n.OXv.& ^ B m M m c.V.XX",
"Y.U.z T J b i U ^ 8.% ,   % o o 6 %   + 4 ! ! i.A.h ^ Y B I.~.P.",
"U.[.9 R g u M z ^ ( : ,   $     t X X + 3 _ 2Xr.u.c e M n m.0.Y.",
"V c b.>.I 7 x z b.( , q X % o o t / X + B 3X=XQ.2 - - u r k.7 b ",
"Z Z F ..C < T r | z A e : , @ % N '.=X3 8.|.1X].g < - u N k.> U ",
"z.Z.N.R C 8 b > Z C Z e % , $ & D {.7.'.R.{.|.w r 1 1 c -.U.Z z.",
"Z.R.p.J C h E 1 A ( #.b.% , o $ ; B.6.S -XXXI.d 8 e d 8 9 M.8.8.",
") I.v V b I &.e Z f 6.Z % 6 & % % k y..X+X+X=.;.e u f f 8 ' ' l.",
"_ C.V v C C $.u Y 8 n m r e X % % 2 R.3 {.+X;.q.d 1 < j h P.) >.",
"n.T.T V b C $.8 { e t.y.g., @ 1 + o y N.{.$X=.q.u 1 , i 1 q ,.I ",
"y.Y.Z x b v } 1 b d C.0.g.% @ , % , @XY.|.oXo.1.f < > d 5 v 8.V ",
"x.>XT f x V x u f i v N.2.%   % $   ,.OX$X=X} K x 1 > u 7 N z.2.",
"7.,X1.8 < u 7 x T A M X $ i X   % 6 n W.{.9Xf.> - p i 8 8 Y _ %.",
"@X,XV 3.i p x u T 4 ; . X i 9 = * I d 9.b.7XV S.P i s s m.q J.4.",
":X@XI  .< u . . 1 + + .   > u u 8 &Xw ` 5X8Xx D.7 u X.@.K 7 H.G.",
"&X4.W + $ > + + 1 + ;     X > u i k.& 3.8X9Xv L.l V a P i q.J /.",
"8 $ ;   = # = = ; + . . X   s i i - $ F.#X8Xg (.+.F.J i s [ j.@.",
"= ; ; . + < <   1 ; ;     . < x i X   F.I 9X- ^.J.J.s - 3._._._.",
"< + +   + + +   = ; =   O O O 8 # O X h.I 5 - %X:Xd x K f.`.C /.",
"X   .   + O     + . = +     X [ 7 7 . F.).I $ J.K.V - /.< ).0 (.",
"1         . X   < o ; # . X X i K X   k.3.Q # 5X9 V 8 !.x %XG./.",
"< +     . .   + 8   . X O .   O.X.$   q.K.+.X 7X# u x 7XW %XL.1.",
"+ +       .     +   = + + X   . ..-    .D.1.O &X7 - K.0XD.:X5.v ",
". + .   . o     =   + + X X     3.w.  I j.K O `.- < E 0X,X).X.5 "
};
