/* XPM */
static char *smith1[] = {
/* columns rows colors chars-per-pixel */
"32 20 157 2 ",
"   c #090E0F",
".  c #0B1413",
"X  c #0D1B16",
"o  c #0C1D19",
"O  c #0D231A",
"+  c #0C2C1D",
"@  c #132C1C",
"#  c #0E301F",
"$  c #0F2D21",
"%  c #122C24",
"&  c #0E3222",
"*  c #0D3C27",
"=  c #0E3E2A",
"-  c #113524",
";  c #1C3423",
":  c #123827",
">  c #1C3B24",
",  c #113528",
"<  c #123B2A",
"1  c #1F3C32",
"2  c #213320",
"3  c #273E23",
"4  c #0F412D",
"5  c #11422E",
"6  c #1C442F",
"7  c #144B2F",
"8  c #0F4430",
"9  c #144531",
"0  c #1A4634",
"q  c #154A33",
"w  c #1A4A35",
"e  c #174C38",
"r  c #1A4D3A",
"t  c #145337",
"y  c #185036",
"u  c #165439",
"i  c #1A533C",
"p  c #15593B",
"a  c #1C5B3F",
"s  c #28452A",
"d  c #344B2E",
"f  c #384B2E",
"g  c #3B502F",
"h  c #234733",
"j  c #204937",
"k  c #2B4E3D",
"l  c #3C4432",
"z  c #3C4A31",
"x  c #3C4F38",
"c  c #285736",
"v  c #435333",
"b  c #4A5A3B",
"n  c #6B5D3A",
"m  c #58613F",
"M  c #1D5641",
"N  c #1D5B42",
"B  c #275440",
"V  c #215B44",
"C  c #335C4C",
"Z  c #1B6343",
"A  c #1C6A47",
"S  c #1E6449",
"D  c #1D6C49",
"F  c #1E724D",
"G  c #25624A",
"H  c #226A4C",
"J  c #21724A",
"K  c #276B50",
"L  c #2B6C51",
"P  c #2D6F58",
"I  c #3B6354",
"U  c #356B56",
"Y  c #366F59",
"T  c #4A6648",
"R  c #5D6B43",
"E  c #50644C",
"W  c #406A5B",
"Q  c #676A43",
"!  c #646A44",
"~  c #77774A",
"^  c #6E6E56",
"/  c #6A7D53",
"(  c #426F60",
")  c #547E6D",
"_  c #837855",
"`  c #2C865A",
"'  c #2E895C",
"]  c #30815D",
"[  c #308A5E",
"{  c #308566",
"}  c #308865",
"|  c #369066",
" . c #34956E",
".. c #329571",
"X. c #359B74",
"o. c #3C9E7B",
"O. c #3FA17E",
"+. c #758C5F",
"@. c #448960",
"#. c #5C936F",
"$. c #459D7B",
"%. c #5A9077",
"&. c #509E7C",
"*. c #69946D",
"=. c #41A27F",
"-. c #83945E",
";. c #97915E",
":. c #918563",
">. c #89956E",
",. c #9D9363",
"<. c #8C9974",
"1. c #A09169",
"2. c #A9966A",
"3. c #A29D79",
"4. c #AC9D7C",
"5. c #99A66D",
"6. c #99A771",
"7. c #A9A174",
"8. c #B3A27D",
"9. c #BBA77E",
"0. c #619587",
"q. c #6E9786",
"w. c #729182",
"e. c #45A482",
"r. c #4EAC89",
"t. c #54A683",
"y. c #5DA784",
"u. c #54AD8E",
"i. c #57B193",
"p. c #5BB296",
"a. c #71AA88",
"s. c #6EA992",
"d. c #70A397",
"f. c #76AA9E",
"g. c #62B69B",
"h. c #80AB8A",
"j. c #97A988",
"k. c #B4A984",
"l. c #B6A989",
"z. c #A6B38C",
"x. c #B9B289",
"c. c #A7A993",
"v. c #A9B596",
"b. c #BDB899",
"n. c #8EB6A0",
"m. c #86B7AB",
"M. c #91BEBB",
"N. c #C3B28C",
"B. c #CDB798",
"V. c #CDBB9D",
"C. c #D3BDA9",
"Z. c #92C4BA",
"A. c #B5C4A8",
"S. c #9ED1C9",
"D. c #A8DFDA",
"F. c #B4E0DD",
"G. c #B3EAE4",
/* pixels */
"Z Z Z Z Z Z Z A A A A A D F F F F F Z X.K 6 > c ` ` ' ' ` ` ' ' ",
"Z N Z N N Z N Z Z Z Z Z Z Z A A F A a w @ @ 3 m +.@. .' ' ' [ [ ",
"p p p p u p t p p t t t t t p t u u 7 @ 3 v -.7.N.<.&.r.$.| ' [ ",
"q 7 7 8 7 q 8 4 4 5 4 4 4 * * * * 4 - 6 f n ;.9.B.N.#.p.p.p.] J ",
"q q 9 5 5 5 5 4 = < < & & & & & # - - > g ~ ,.2.B.V.*.i.g.g.L 7 ",
"w q 5 = 4 4 4 4 * < - # & & + & # - # > d ~ ;.,.N.x.>.s.p.g.L 7 ",
"q 5 5 = = 4 4 = - < * & + + & + # - > > > v +.n z b 1.h.p.p.L y ",
"q 9 5 * < < = = < * & & & + # + # - - @ X X z Q l ^ 4.a.u.u.L y ",
"q 5 5 < < < < < < - - & # + + # + * 6 ; ; 2 l l.V.C.v.t.e.e.H i ",
"5 5 = < - < < < * - - + + + + + + & i 0 s d d 3.V.C.a.=.o...A y ",
"9 8 < < , , , * , & - & + + O + + & S K > d v :.b.b.y.O.X. .H y ",
"8 4 < - - - , % 9 r q & + + + + $ & S P - > f _ l.c.t.e.X. .H a ",
"9 = , - < < e M M V r < + + + O + & < % X O s / z.v.y.e.o...H M ",
"& O < 9 0 e e M N V i 5 + + + O O & $ o o o I n.A.A.%.$.o...H a ",
"$ . < e e i M V N i 0 T E @ O o o o $ $ $ + 1 M.F.w.) V { ..H V ",
"O   % M G M e r 0 j h :.c.; . . o o $ , & % - W Z.B m.( i } H M ",
"+   X q 9 - . 2 R ! m k.c.; o o $ , < = = & < 9 d.B d.S.c N S N ",
": - + O + @ X @ b Q n 4.v.k & - 9 9 e < < < , e %.) C G.0.9 a V ",
"- - # + O O @ x +.6.k.8.j.) < w 9 i i < , 9 = 9 Y m.0 f.D.G q a ",
"- - # + + O @ b -.5.l.k.>.q.< a e i r = , e 9 9 V M.I U G.d.q M "
};
